# xmcd
#
# Track frame offsets:
#	150
#	11058
#	23608
#	34915
#	46974
#	60114
#	70819
#	81849
#	102826
#	114753
#	133353
#
# Disc length: 1911 seconds
# Revision: 0
# Processed by: cddbd v1.5.2PL0 Copyright (c) Steve Scherf et al.
# Submitted via: dBpowerAMP V12.0
#
DISCID=8407750b
DTITLE=Country Sisters - Dare To Go Bare
DYEAR=2007
DGENRE=Country
TTITLE0=One Way Track
TTITLE1=Chevy Dreams
TTITLE2=Dare To Go Bare
TTITLE3=Money Money
TTITLE4=My Wedding Song
TTITLE5=You Make Me Happy
TTITLE6=Diggi Liggi Lo
TTITLE7=More Than A Lover
TTITLE8=I Don't Know
TTITLE9=Czardas
TTITLE10=Hot Rod
EXTD=
EXTT0=
EXTT1=
EXTT2=
EXTT3=
EXTT4=
EXTT5=
EXTT6=
EXTT7=
EXTT8=
EXTT9=
EXTT10=
PLAYORDER=
